<?xml version="1.0" encoding="utf-8"?>
<!-- Generator: Adobe Illustrator 19.2.1, SVG Export Plug-In . SVG Version: 6.00 Build 0)  -->
<svg version="1.1" id="Layer_1" xmlns="http://www.w3.org/2000/svg" xmlns:xlink="http://www.w3.org/1999/xlink" x="0px" y="0px"
	 viewBox="0 0 80 80" style="enable-background:new 0 0 80 80;" xml:space="preserve">
<style type="text/css">
	.st0{fill:#FFFFFF;}
</style>
<circle class="st0" cx="40" cy="40" r="40"/>
<g>
	<path d="M63.3,60.1C53.2,43,43.2,25.9,33.2,8.7c0.1,0,0.2-0.1,0.3-0.1c3.2,0,6.3,0,9.5,0c0.8,0,1.5,0.1,2.3,0.3
		c1,0.3,2,0.9,2.6,1.8c0.7,0.9,1.2,1.9,1.8,2.9c0.8,1.3,1.5,2.5,2.2,3.8c0.7,1.1,1.3,2.3,2,3.4c0.5,0.9,1.1,1.9,1.7,2.8
		c0.6,1.1,1.2,2.2,1.9,3.3c0.6,1.1,1.3,2.2,1.9,3.2c0.6,1,1.1,1.9,1.7,2.9c0.4,0.6,0.7,1.2,1.1,1.8c0.5,0.9,1,1.8,1.5,2.6
		c0.5,0.8,1,1.6,1.5,2.5c0.5,0.9,1,1.8,1.5,2.7c0.6,1.1,1.3,2.2,1.9,3.3c0.2,0.4,0.3,0.9,0.5,1.4c0.1,0.2,0.1,0.4,0.2,0.6
		c0,0.5,0.1,1,0,1.4c-0.2,1.5-1.1,2.6-1.8,3.9c-0.6,1.1-1.3,2.2-1.9,3.2c-0.7,1.1-1.3,2.2-2,3.4C63.4,59.9,63.4,60,63.3,60.1z"/>
	<path d="M9.8,48.7c0.3,0,0.5,0,0.7,0c11.7,0,23.4,0,35.1,0c0.1,0,0.3,0,0.4,0c0.2,0.1,0.5,0.2,0.6,0.3c0.5,0.7,0.9,1.5,1.3,2.2
		c0.6,1.1,1.3,2.2,2,3.2c0.5,0.8,0.9,1.6,1.3,2.3c0.4,0.7,0.9,1.4,1.3,2.1c0.2,0.4,0.5,0.8,0.8,1.3c-0.3,0-0.4,0-0.6,0
		c-10.8,0-21.7,0-32.5,0c-0.5,0-1,0-1.5-0.1c-0.5-0.1-1-0.3-1.4-0.5c-0.6-0.4-1.2-0.8-1.7-1.3c-0.5-0.5-0.8-1.1-1.1-1.7
		c-0.4-0.7-0.9-1.4-1.3-2.2c-0.5-0.8-0.9-1.6-1.4-2.4c-0.5-0.9-1.1-1.8-1.6-2.7C10,49.2,9.9,48.9,9.8,48.7z"/>
	<path d="M41.4,39.9c-0.1,0-0.2,0.1-0.3,0.1c-8.7,0-17.3,0-26,0c-0.1,0-0.2-0.1-0.4-0.1c0.1-0.1,0.1-0.3,0.2-0.4
		c0.3-0.6,0.7-1.2,1-1.7c0.8-1.3,1.5-2.6,2.3-3.8c0.4-0.7,0.8-1.5,1.3-2.2c0.6-1.1,1.3-2.2,2-3.3c0.6-1.1,1.2-2.1,1.9-3.2
		c0.8-1.3,1.6-2.6,2.3-4c0.4-0.8,0.9-1.5,1.3-2.3c0.3-0.5,0.6-1,0.9-1.5c0.1-0.2,0.3-0.1,0.4,0.1c0.3,0.6,0.7,1.2,1,1.7
		c0.6,1.1,1.3,2.2,1.9,3.3c0.6,1.1,1.2,2.1,1.8,3.2c0.6,1,1.2,2,1.7,3c0.5,0.9,1.1,1.9,1.6,2.8c0.6,1.1,1.3,2.1,1.9,3.2
		c0.8,1.3,1.5,2.6,2.2,3.9C40.8,38.9,41.1,39.4,41.4,39.9z"/>
</g>
</svg>
