<?xml version="1.0" standalone="no"?>
<!DOCTYPE svg PUBLIC "-//W3C//DTD SVG 20010904//EN"
 "http://www.w3.org/TR/2001/REC-SVG-20010904/DTD/svg10.dtd">
<svg version="1.0" xmlns="http://www.w3.org/2000/svg"
 width="1080.000000pt" height="1080.000000pt" viewBox="0 0 1080.000000 1080.000000"
 preserveAspectRatio="xMidYMid meet">
<metadata>
Created by potrace 1.11, written by Peter Selinger 2001-2013
</metadata>
<g transform="translate(0.000000,1080.000000) scale(0.100000,-0.100000)"
fill="#000000" stroke="none">
<path d="M0 5400 l0 -5400 5400 0 5400 0 0 5400 0 5400 -5400 0 -5400 0 0
-5400z m5495 2840 c623 -41 1053 -153 1356 -355 267 -178 433 -437 497 -779
27 -144 24 -485 -6 -634 -93 -462 -371 -784 -764 -883 -120 -29 -119 -46 2
-76 114 -29 283 -96 377 -151 344 -201 521 -533 553 -1032 35 -551 -138 -1000
-505 -1308 -321 -270 -745 -427 -1275 -472 -67 -6 -604 -10 -1282 -10 l-1168
0 0 2855 0 2855 1028 0 c603 0 1093 -4 1187 -10z"/>
<path d="M4490 6625 l0 -637 468 5 c515 5 600 13 767 68 169 57 267 134 330
263 46 92 65 186 65 316 0 303 -129 468 -432 554 -173 50 -270 58 -750 63
l-448 5 0 -637z"/>
<path d="M4490 4284 l0 -746 508 5 c545 5 583 9 762 63 326 99 490 334 490
700 0 331 -149 541 -455 643 -205 68 -352 81 -901 81 l-404 0 0 -746z"/>
</g>
</svg>
