<?xml version="1.0" encoding="UTF-8"?>
<svg id="Layer_1" data-name="Layer 1" xmlns="http://www.w3.org/2000/svg" viewBox="0 0 800 800">
  <defs>
    <style>
      .cls-1 {
        fill: #202020;
        stroke: #202020;
        stroke-miterlimit: 10;
        stroke-width: 10px;
      }
    </style>
  </defs>
  <path class="cls-1" d="M748.08,201c-2.91-14.69-9.46-28.58-19.03-40.26-1.94-2.45-3.97-4.63-6.2-6.84-17.02-17.11-40.69-26.92-64.94-26.92H142.09c-24.53,0-47.6,9.56-64.96,26.93-2.2,2.19-4.23,4.39-6.25,6.92-9.52,11.63-16.05,25.5-18.89,40.21-1.19,5.78-1.78,11.77-1.78,17.82v362.27c0,12.6,2.56,24.88,7.64,36.54,4.39,10.36,11.06,20.18,19.28,28.4,2.07,2.06,4.13,3.96,6.33,5.82,16.44,13.62,37.26,21.11,58.63,21.11H657.91c21.51,0,42.31-7.52,58.71-21.26,2.19-1.77,4.22-3.64,6.26-5.67,7.95-7.94,14.27-17.07,18.81-27.13l.6-1.43c4.98-11.45,7.51-23.68,7.51-36.38V218.87c0-5.98-.58-12-1.71-17.86Zm-650.29-15.38c1.3-1.9,2.96-3.85,5.07-5.99,10.51-10.5,24.44-16.28,39.22-16.28H657.91c14.91,0,28.85,5.79,39.24,16.3,1.79,1.81,3.51,3.83,5,5.84l3.94,5.3-275.32,239.96c-8.49,7.44-19.42,11.54-30.77,11.54s-22.17-4.09-30.75-11.53L94.19,190.86l3.6-5.24Zm-11.02,398.72c-.15-.99-.18-2.08-.18-3.2V226.37l213.66,186.39-211.5,184.41-1.97-12.82Zm598.67,44.99c-8.27,4.77-17.79,7.3-27.53,7.3H142.09c-9.74,0-19.26-2.53-27.52-7.3l-8.65-5.01,218.53-190.44,23.95,20.83c14.37,12.47,32.69,19.35,51.6,19.35s37.33-6.88,51.69-19.35l23.94-20.84,218.46,190.46-8.65,5Zm27.97-48.19c0,1.1-.02,2.18-.16,3.15l-1.89,12.94-211.59-184.38,213.65-186.4v354.68Z"/>
</svg>