<?xml version="1.0" encoding="UTF-8"?>
<svg id="Layer_1" data-name="Layer 1" xmlns="http://www.w3.org/2000/svg" viewBox="0 0 800 800">
  <path d="M400,34.38C192.95,34.38,25.1,202.23,25.1,409.28c0,164.63,106.12,304.5,253.7,354.87l2.65,.78c18.75,3.53,25.62-8.05,25.62-18.03,0-8.9-.3-32.5-.48-63.72-104.28,22.63-126.28-50.3-126.28-50.3-7.2-23.12-21.95-42.12-41.32-54.6l-.4-.23c-33.95-23.25,2.63-22.77,2.63-22.77,24.67,3.47,45.35,17.95,57.23,38.25l.2,.37c13.85,24.88,40,41.42,70.03,41.42,14.4,0,27.9-3.8,39.55-10.48l-.4,.2c1.8-19.78,10.52-37.23,23.73-50.12l.03-.02c-83.25-9.38-170.77-41.63-170.77-185.25,0-.68-.02-1.45-.02-2.22,0-38.02,14.67-72.62,38.67-98.45l-.07,.1c-5.08-13.55-8.03-29.2-8.03-45.53,0-19.43,4.15-37.9,11.62-54.55l-.35,.85s31.4-10.05,103.1,38.43c28.1-8.03,60.37-12.65,93.73-12.65s65.62,4.63,96.22,13.25l-2.5-.6c71.23-48.48,102.62-38.42,102.62-38.42,7.12,16.05,11.28,34.75,11.28,54.43,0,16.05-2.75,31.45-7.82,45.75l.3-.95c23.82,25.8,38.45,60.4,38.45,98.43,0,.78,0,1.52-.02,2.27v-.13c0,144.02-87.62,175.72-171.05,184.95,15.8,16.17,25.55,38.3,25.55,62.73,0,2.33-.1,4.65-.27,6.95l.02-.3c0,50.17-.47,90.47-.47,102.65,0,9.85,6.55,21.55,25.78,17.8,150.7-50.72,257.3-190.72,257.3-355.65,0-206.8-167.65-374.43-374.42-374.43h-.45l.05,.03Z"/>
</svg>