<?xml version="1.0" encoding="UTF-8"?>
<svg id="Layer_1" data-name="Layer 1" xmlns="http://www.w3.org/2000/svg" viewBox="0 0 800 800">
  <defs>
    <style>
      .cls-1 {
        fill: #fff;
      }

      .cls-2 {
        fill: #069;
      }
    </style>
  </defs>
  <path class="cls-2" d="M33.8,86.26c0-28.96,24.24-52.46,54.13-52.46H712.07c29.9,0,54.13,23.51,54.13,52.46V713.74c0,28.97-24.23,52.46-54.13,52.46H87.93c-29.88,0-54.13-23.49-54.13-52.45V86.26h0Z"/>
  <path class="cls-1" d="M256.37,646.72V316.99h-109.6v329.73h109.6Zm-54.78-374.74c38.21,0,62-25.32,62-56.96-.72-32.36-23.79-56.98-61.27-56.98s-62.01,24.61-62.01,56.97,23.78,56.96,60.56,56.96h.72Zm115.44,374.74h109.59v-184.12c0-9.84,.72-19.71,3.61-26.74,7.92-19.7,25.95-40.09,56.23-40.09,39.65,0,55.52,30.23,55.52,74.56v176.38h109.59v-189.06c0-101.27-54.06-148.4-126.16-148.4-59.12,0-85.08,33.04-99.5,55.54h.73v-47.8h-109.59c1.43,30.93,0,329.73,0,329.73h0Z"/>
</svg>