<?xml version="1.0" encoding="UTF-8"?>
<svg id="Layer_1" data-name="Layer 1" xmlns="http://www.w3.org/2000/svg" viewBox="0 0 800 800">
  <defs>
    <style>
      .cls-1 {
        fill: #47acdf;
      }
    </style>
  </defs>
  <path class="cls-1" d="M260.43,707.95c-86.62,0-167.36-25.19-235.33-68.66,57.7,3.74,159.53-5.21,222.87-65.62-95.28-4.37-138.25-77.45-143.86-108.68,8.1,3.12,46.71,6.87,68.5-1.87-109.61-27.48-126.42-123.67-122.68-153.02,20.55,14.37,55.43,19.36,69.13,18.11C16.93,255.13,53.67,145.2,71.73,121.46c73.29,101.54,183.14,158.57,319.03,161.74-2.56-11.24-3.91-22.94-3.91-34.95,0-86.24,69.7-156.15,155.69-156.15,44.92,0,85.41,19.08,113.82,49.61,30.02-7.03,75.2-23.5,97.29-37.74-11.13,39.97-45.79,73.32-66.76,85.68,.17,.42-.17-.42,0,0,18.42-2.79,68.25-12.36,87.93-25.72-9.74,22.46-46.48,59.8-76.64,80.7,5.61,247.45-183.71,463.32-437.76,463.32Z"/>
</svg>