<?xml version="1.0" encoding="utf-8"?>
<!-- Generator: Adobe Illustrator 26.5.0, SVG Export Plug-In . SVG Version: 6.00 Build 0)  -->
<svg version="1.1" id="Layer_1" xmlns="http://www.w3.org/2000/svg" xmlns:xlink="http://www.w3.org/1999/xlink" x="0px" y="0px"
	 viewBox="0 0 360 360" style="enable-background:new 0 0 360 360;" xml:space="preserve">
<style type="text/css">
	.st0{stroke:#1E1D1D;stroke-width:20;stroke-linecap:round;stroke-linejoin:round;stroke-miterlimit:10;}
</style>
<g>
	<path class="st0" d="M187.8,287.7c-5.5,0-10.2,0-15.6,0c0-32.3,0-64.5,0-97.3c-32.6,0-64.7,0-97.1,0c0-5.5,0-10.4,0-15.9
		c32.2,0,64.3,0,96.9,0c0-32.6,0-64.7,0-97c5.3,0,10.1,0,15.5,0c0,32.2,0,64.2,0,96.8c32.8,0,64.8,0,97.3,0c0,5.6,0,10.6,0,16.1
		c-32.3,0-64.4,0-97.1,0C187.8,223.1,187.8,255.3,187.8,287.7z"/>
</g>
<rect x="176" y="180" class="st0" width="8" height="5.8"/>
</svg>