<?xml version="1.0" encoding="utf-8"?>
<!-- Generator: Adobe Illustrator 26.5.0, SVG Export Plug-In . SVG Version: 6.00 Build 0)  -->
<svg version="1.1" id="Layer_1" xmlns="http://www.w3.org/2000/svg" xmlns:xlink="http://www.w3.org/1999/xlink" x="0px" y="0px"
	 viewBox="0 0 360 360" style="enable-background:new 0 0 360 360;" xml:space="preserve">
<style type="text/css">
	.st0{fill:#1E1D1D;}
</style>
<g>
	<path class="st0" d="M243.8,50.1c1.8,0.7,3.8,0.9,5.5,1.7c7.8,3.1,13,8.9,16.3,16.5c2.4,5.4,3.5,11.1,4.1,16.9
		c0.8,8.3,0.3,16.5-0.8,24.6c-0.8,6.6-2.2,13.2-3.8,19.7c-0.4,1.6-0.4,1.6,1.2,2.1c9.8,2.8,19.4,6.3,28.5,11
		c7.3,3.8,14.3,8.2,20.2,14.1c4.2,4.2,7.6,8.9,9.5,14.8c2.7,8.5,1.4,16.6-3.2,24.1c-4.3,7.1-10.5,12.3-17.4,16.7
		c-10.1,6.5-21.1,11-32.4,14.7c-2,0.7-3.9,1.2-5.9,1.8c-0.7,0.2-0.8,0.5-0.7,1.1c1.6,6.3,2.8,12.6,3.8,19c0.5,3.8,0.9,7.5,1.1,11.3
		c0.2,4,0.3,8.1,0,12.1c-0.7,9-2.4,17.9-7.7,25.5c-4.7,6.8-11.1,11.2-19.4,12c-7.4,0.8-14.7-0.2-21.7-3.1
		c-9.1-3.7-17.4-8.9-25.2-14.9c-5.3-4-10.3-8.5-15.1-13.2c-0.7-0.7-1-0.7-1.8,0c-8.3,8-17.2,15.4-27.1,21.3
		c-7.1,4.3-14.7,7.8-23,9.4c-2.7,0.5-5.4,0.3-8.1,0.4c-11.6,0.2-19.6-5.5-25.1-15.1c-3.1-5.4-4.5-11.4-5.3-17.5
		c-0.6-4.6-0.8-9.3-0.7-14c0.4-9.1,1.6-18.1,3.6-27c0.5-2,0.8-4,1.4-6c0.3-0.9,0.1-1.2-0.8-1.5c-6.1-1.8-12.1-3.8-18-6.1
		c-8.9-3.6-17.4-7.9-25.1-13.7c-5.5-4.2-10.4-9-13.5-15.3c-5.5-10.7-4.3-21.1,2.5-30.8c5.3-7.5,12.4-12.8,20.2-17.3
		c10.4-6,21.6-10.2,33.1-13.6c0.3-0.1,0.6-0.2,0.8-0.2c0.8-0.1,0.9-0.6,0.8-1.4c-1.7-6.9-3.1-13.9-3.9-21c-0.8-6-1.2-12-0.9-18.1
		c0.4-8.8,1.6-17.5,5.8-25.4c4.3-8.1,10.9-13.4,20-15.1c0.2,0,0.3-0.2,0.4-0.2c3.8,0,7.4,0,11.2,0c0.2,0.1,0.4,0.2,0.6,0.2
		c3,0.5,6,1.2,8.8,2.3c10.4,3.7,19.6,9.7,28.2,16.4c5,3.9,9.6,8,14.1,12.3c0.6,0.6,0.9,0.6,1.5,0c1-1.1,2.3-2.1,3.4-3.2
		c6.4-5.9,13.2-11.4,20.4-16.2c6.5-4.2,13.4-7.8,20.8-10.2c2.4-0.8,4.8-1.1,7.2-1.8C236.4,50.1,240.1,50.1,243.8,50.1z M180.4,226.8
		c5.1,0.2,10.3-0.2,15.6-0.3c3.3-0.1,6.5-0.5,9.8-0.7c0.8,0,1.1-0.4,1.6-0.9c9.5-14.1,18.1-28.8,25.5-44.1c0.3-0.7,0.4-1.2,0-1.9
		c-2.5-5.2-5.2-10.3-7.9-15.3c-5.5-10-11.3-19.6-17.7-29c-0.4-0.5-0.7-0.7-1.3-0.8c-5.8-0.6-11.8-0.8-17.6-0.8
		c-6.5-0.2-13-0.2-19.6,0.1c-4.7,0.2-9.4,0.4-14.1,0.8c-0.8,0.1-1.2,0.4-1.7,1c-9.5,14.1-18,28.8-25.4,44c-0.4,0.8-0.4,1.2,0,2
		c3,6,6,11.9,9.3,17.9c5.1,9,10.4,17.8,16.3,26.3c0.3,0.4,0.6,0.8,1.1,0.8c1.8,0.1,3.6,0.4,5.4,0.4
		C166.4,226.5,173.2,226.9,180.4,226.8z M102.7,93.6c0.1,2.8,0.2,5.5,0.5,8.4c0.7,8.3,2.2,16.5,4.1,24.5c0.3,1,0.6,1.2,1.6,0.9
		c6.5-1.5,13.1-2.6,19.7-3.6c5.6-0.8,11.4-1.5,17.1-2.1c0.8-0.1,1.1-0.4,1.6-0.9c7.2-10.1,14.9-19.8,23.3-29c0.7-0.8,0.5-1-0.1-1.7
		c-5.3-5.1-10.8-9.9-16.8-14.2c-7-5.1-14.3-9.5-22.6-12.1c-4.3-1.3-8.7-2.1-13.3-1.1c-5.8,1.2-9.4,5.2-11.7,10.4
		C103.3,79.8,102.9,86.7,102.7,93.6z M102.7,266.4c-0.1,1.3,0.1,3.2,0.3,5c0.3,5.2,1.1,10.2,3.3,15c3.9,8.7,10,11.5,18.4,10.6
		c5.1-0.5,9.8-2.3,14.3-4.5c11.9-5.9,22.1-14.3,31.7-23.4c0.7-0.6,0.4-0.9-0.1-1.4c-2.2-2.4-4.4-4.9-6.5-7.3
		c-6-7.1-11.7-14.3-17-21.9c-0.3-0.5-0.7-0.7-1.2-0.8c-2-0.2-3.9-0.5-5.9-0.7c-5.3-0.6-10.5-1.3-15.7-2.2c-5.3-0.8-10.4-1.8-15.6-3
		c-0.7-0.2-1,0-1.2,0.8c-0.3,1.6-0.8,3.1-1.1,4.7C104.2,246.9,102.8,256.4,102.7,266.4z M313.3,178.6c0-1.7-0.8-4.3-2.3-6.9
		c-2.7-4.7-6.6-8.3-10.9-11.4c-11.5-8.3-24.5-13.1-38.1-17c-0.7-0.2-0.8,0.1-0.9,0.6c-0.5,1.6-1,3.2-1.6,4.9
		c-3.5,10.2-7.4,20.3-12,30.1c-0.3,0.7-0.3,1.3,0,2c1,2.2,2,4.4,2.9,6.6c3.9,9.1,7.5,18.5,10.5,28c0.2,0.7,0.3,1.1,1.3,0.8
		c10.2-3,20-6.6,29.3-11.7c5.9-3.2,11.4-7,15.9-12C310.9,189,313.3,185,313.3,178.6z M257.5,93.6c0-2.8-0.2-5.5-0.5-8.3
		c-0.6-4.8-1.5-9.4-3.8-13.7c-3.2-6-8.1-9.2-15-9.1c-5.9,0.1-11.3,1.9-16.6,4.4c-12.1,5.8-22.4,14.4-32.2,23.6
		c-0.6,0.6-0.4,0.8,0,1.3c8.5,9.2,16.3,19,23.5,29.2c0.4,0.5,0.7,0.8,1.3,0.8c3.3,0.4,6.7,0.8,10,1.1c9.1,1,18.1,2.6,27.2,4.6
		c0.8,0.2,1.1,0,1.3-0.8c0.4-2,0.9-3.9,1.3-5.8C256.2,111.9,257.4,102.8,257.5,93.6z M257.6,265.9c-0.2-4.3-0.4-8.7-0.9-13.1
		c-0.8-6.7-2.2-13.4-3.8-19.8c-0.2-0.8-0.6-1-1.4-0.8c-2.4,0.6-4.8,1-7.1,1.5c-5.9,1.1-11.8,2.1-17.8,2.9c-3.9,0.5-7.6,0.9-11.5,1.3
		c-0.9,0.1-1.6,0.4-2.3,1.2c-7.1,10.1-14.8,19.7-23.1,28.8c-0.8,0.8-0.6,1.1,0.1,1.8c5.8,5.5,11.8,10.7,18.4,15.3
		c6.3,4.4,12.9,8.3,20.2,10.7c4.4,1.4,8.9,2.3,13.5,1.4c6-1.1,9.7-5.2,11.9-10.5C256.8,279.9,257.4,273,257.6,265.9z M46.8,179.7
		c-0.1,2.9,0.8,5.6,2.3,8.2C52,193,56.2,196.8,61,200c11.3,7.8,24,12.5,37.1,16.3c0.7,0.2,0.8-0.1,0.9-0.6c0.4-1.1,0.8-2.3,1.1-3.5
		c3.6-10.8,7.8-21.3,12.5-31.6c0.3-0.7,0.3-1.1,0-1.8c-1.1-2.4-2.2-4.8-3.2-7.1c-3.9-9-7.4-18.2-10.3-27.6c-0.2-0.7-0.4-1-1.2-0.8
		c-10.1,3-19.8,6.5-29.1,11.5c-5.9,3.2-11.5,6.9-16,11.8C49.4,170.4,46.9,174.6,46.8,179.7z M223.1,223.9c0.7,0.3,1.3,0.1,1.8,0.1
		c1.4-0.2,2.8-0.5,4.3-0.7c6.3-0.8,12.5-2.1,18.7-3.3c0.9-0.2,1.2-0.5,0.8-1.4c-1.3-3.6-2.4-7.2-3.8-10.8c-1.5-4.3-3.2-8.6-5.1-12.9
		C234.7,204.8,229.2,214.4,223.1,223.9z M223.1,135.6c6.1,9.6,11.7,19.3,16.9,29.2c3.3-7.8,6.2-15.5,8.7-23.3c0.5-1.6,0.5-1.6-1.1-2
		c-5.7-1.2-11.6-2.3-17.3-3.1C227.9,136.2,225.6,135.7,223.1,135.6z M137.1,135.7c-0.7,0-1,0-1.4,0c-7.9,1-15.8,2.4-23.6,4
		c-1,0.2-1,0.6-0.8,1.4c2,6.1,4.1,12.1,6.6,18.1c0.8,1.8,1.5,3.6,2.4,5.6C125.5,154.8,131.1,145.2,137.1,135.7z M120.2,195.1
		c-0.1,0.1-0.2,0.3-0.3,0.5c-3.1,7.3-5.9,14.9-8.3,22.5c-0.6,1.7-0.6,1.7,1.1,2c6.3,1.3,12.7,2.4,19.1,3.4c1.7,0.3,3.4,0.7,5.1,0.6
		C131.3,214.3,125.7,204.7,120.2,195.1z M163.1,239.1c1.3,1.7,2.4,3.1,3.6,4.6c4,5.2,8.3,10.2,12.6,15c0.7,0.8,1,0.7,1.6,0
		c1.1-1.4,2.4-2.6,3.6-4c4-4.7,8-9.5,11.8-14.5c0.2-0.3,0.6-0.5,0.5-0.8c-0.2-0.4-0.7-0.2-1-0.2c-2.3,0.1-4.5,0.1-6.9,0.2
		C180.4,239.5,171.9,239.5,163.1,239.1z M163.4,120.2c3.3,0,6.7,0,10.1,0c7.4,0,14.9,0,22.3,0.3c0.4,0,0.8,0.2,1-0.2
		c0.2-0.4-0.3-0.6-0.5-0.8c-4.8-6.4-10-12.5-15.3-18.4c-0.8-0.8-1.1-0.7-1.7,0.1c-2.6,3.1-5.4,6.2-8,9.3
		C168.4,113.6,165.8,117,163.4,120.2z"/>
	<path class="st0" d="M180.1,205.9c-14,0-26-11-26-26s12-26,26-26s26,11,26,26C206.1,194.7,194.2,205.8,180.1,205.9z"/>
</g>
</svg>
