<?xml version="1.0" encoding="utf-8"?>
<!-- Generator: Adobe Illustrator 26.5.0, SVG Export Plug-In . SVG Version: 6.00 Build 0)  -->
<svg version="1.1" id="Layer_1" xmlns="http://www.w3.org/2000/svg" xmlns:xlink="http://www.w3.org/1999/xlink" x="0px" y="0px"
	 viewBox="0 0 360 360" style="enable-background:new 0 0 360 360;" xml:space="preserve">
<style type="text/css">
	.st0{fill:#1E1D1D;}
</style>
<g>
	<path class="st0" d="M131.9,330.3c-0.1-0.3-0.2-0.5-0.3-0.7c-15.8-28.1-31.6-56.1-47.3-84.2c-0.2-0.3-0.3-0.5-0.4-0.9
		c0.4,0,0.8,0,1.2,0c31.4,0,62.8,0,94.1,0c0.9,0,1.3-0.3,1.8-1.1c15.7-28,31.5-56.1,47.3-84.1c0.1-0.3,0.3-0.4,0.4-0.8
		c0.2,0.3,0.3,0.4,0.4,0.6c15.9,28.2,31.8,56.4,47.6,84.6c0.3,0.4,0.2,0.8-0.1,1.2c-15.8,28.1-31.6,56.2-47.5,84.3
		c-0.2,0.4-0.4,0.6-0.5,1C196.3,330.3,164.1,330.3,131.9,330.3z"/>
	<path class="st0" d="M83.1,115.5c0.4-0.8,1-1.6,1.4-2.4C100,85.5,115.5,58,131,30.4c0.3-0.5,0.6-0.7,1.3-0.7c31.7,0,63.3,0,94.9,0
		c0.6,0,0.9,0.2,1.3,0.7c15.7,28,31.5,56,47.2,84.1c0.2,0.3,0.3,0.5,0.5,1c-0.4,0-0.8,0.1-1.1,0.1c-31.3,0-62.7,0-94,0
		c-1,0-1.4,0.3-1.9,1.2c-15.7,28-31.4,56-47.2,83.9c-0.2,0.3-0.3,0.5-0.4,0.8c-0.5-0.9-1-1.7-1.4-2.5c-15.5-27.5-31-55.1-46.5-82.6
		c-0.1-0.3-0.3-0.4-0.4-0.6C83.1,115.6,83.1,115.6,83.1,115.5z"/>
</g>
</svg>
