<?xml version="1.0" encoding="utf-8"?>
<!-- Generator: Adobe Illustrator 26.5.0, SVG Export Plug-In . SVG Version: 6.00 Build 0)  -->
<svg version="1.1" id="Layer_1" xmlns="http://www.w3.org/2000/svg" xmlns:xlink="http://www.w3.org/1999/xlink" x="0px" y="0px"
	 viewBox="0 0 360 360" style="enable-background:new 0 0 360 360;" xml:space="preserve">
<style type="text/css">
	.st0{fill:#1E1D1D;}
</style>
<g>
	<path class="st0" d="M179.7,330.1c-14.1-8.2-28.2-16.5-42.3-24.6C112,290.7,86.5,276,61.1,261.3c-0.6-0.4-1.2-0.8-1.9-1.3
		c5.3-3.1,10.5-6.1,15.6-9c9.4-5.4,18.8-10.8,28.1-16.4c1.7-1,2.8-1,4.5,0c14.5,8.5,29.1,16.9,43.7,25.3c1.2,0.6,2.7,0.7,4,1
		c0.3-1.2,0.8-2.6,0.8-3.8c0.1-20.7-0.1-41.3,0.1-62c0-4-1.3-6.2-4.8-8.2c-17.6-9.9-34.9-20.1-52.3-30.1c-3.9-2.2-5.6-1.2-5.6,3.3
		c0,16.8,0,33.7,0,50.5c0,1.6-0.1,2.9-1.8,3.9c-14.3,8.2-28.5,16.6-42.8,24.9c-0.4,0.3-0.8,0.4-1.7,0.8c0-1.4,0-2.5,0-3.5
		c0-44.5,0-89-0.1-133.6c0-2.4,0.8-3.6,2.8-4.8c39-22.3,77.8-44.7,116.6-66.9c0.8-0.4,1.7-0.9,2.8-1.5c0.1,1.2,0.2,2.2,0.2,3.1
		c0,15.9,0,31.7,0.1,47.5c0,2.1-0.5,3.3-2.4,4.3c-14.7,8.4-29.3,16.8-43.9,25.4c-1.2,0.7-2.5,2-2.7,3c-0.1,0.8,1.4,2.1,2.5,2.7
		c17.7,10.4,35.6,20.6,53.3,30.9c3,1.8,5.5,2,8.7,0.1c17.7-10.4,35.5-20.6,53.3-30.9c3.7-2.2,3.8-3.7,0-5.9
		c-14.6-8.5-29.3-17-43.9-25.4c-1.9-1.1-2.5-2.2-2.5-4.3c0.1-16.8,0.1-33.4,0.1-50.6c1,0.4,1.8,0.7,2.5,1.1
		c38.8,22.5,77.6,45,116.4,67.6c1.3,0.8,2.1,1.6,2.1,3.4c-0.1,45.3-0.1,90.6-0.1,135.9c0,0.4-0.1,1-0.2,1.7c-0.7-0.3-1.4-0.5-2-0.8
		c-14.1-7.9-28.1-15.8-42.2-23.6c-1.8-1-2.1-2.1-2.1-4c0.1-16.9,0-33.9,0-50.8c0-4.8-1.2-5.5-5.3-3.2
		c-17.8,10.3-35.7,20.7-53.6,30.9c-2.5,1.4-3.6,3.3-3.6,6.1c0,21,0,42.1,0,63.1c0,4.2,1.4,4.9,5.1,2.7c14.7-8.5,29.4-17,44.2-25.5
		c0.9-0.5,2.6-0.9,3.4-0.4c15,8.5,29.8,17.2,45.1,26.1c-1.6,1-2.9,1.8-4.3,2.5c-38.2,22.1-76.3,44.1-114.6,66.1
		c-0.8,0.4-1.5,1-2.2,1.4C180.1,330.1,179.9,330.1,179.7,330.1z"/>
</g>
</svg>
