<?xml version="1.0" standalone="no"?>
<!DOCTYPE svg PUBLIC "-//W3C//DTD SVG 20010904//EN"
 "http://www.w3.org/TR/2001/REC-SVG-20010904/DTD/svg10.dtd">
<svg version="1.0" xmlns="http://www.w3.org/2000/svg"
 width="2000.000000pt" height="2000.000000pt" viewBox="0 0 2000.000000 2000.000000"
 preserveAspectRatio="xMidYMid meet">
<metadata>
Created by potrace 1.11, written by Peter Selinger 2001-2013
</metadata>
<g transform="translate(0.000000,2000.000000) scale(0.100000,-0.100000)"
fill="#000000" stroke="none">
<path d="M0 10000 l0 -10000 10000 0 10000 0 0 10000 0 10000 -10000 0 -10000
0 0 -10000z m9473 5690 c1253 -44 2032 -275 2712 -803 522 -406 806 -891 910
-1557 22 -142 31 -542 16 -680 -87 -757 -503 -1410 -1181 -1856 -202 -133
-412 -241 -637 -329 -88 -34 -98 -58 -30 -75 350 -90 725 -260 1037 -471 179
-121 272 -199 445 -373 319 -320 520 -644 653 -1056 248 -767 157 -1700 -234
-2403 -142 -255 -307 -472 -523 -687 -373 -372 -858 -636 -1507 -824 -492
-142 -1047 -226 -1759 -268 -414 -24 -1346 -13 -1915 23 -322 20 -947 79 -988
94 -10 3 -12 1113 -10 5522 l3 5517 60 13 c458 94 1187 173 1880 203 440 20
722 22 1068 10z"/>
<path d="M8925 14584 c-342 -9 -653 -35 -887 -75 l-128 -22 0 -1808 0 -1809
768 0 c812 0 934 5 1195 50 865 147 1485 612 1702 1274 56 171 77 298 82 506
10 352 -42 620 -171 885 -280 574 -918 911 -1861 984 -148 12 -522 20 -700 15z"/>
<path d="M7910 7630 c0 -1703 3 -2141 13 -2145 24 -8 274 -35 417 -45 253 -18
887 -24 1100 -11 1318 81 2155 568 2453 1427 71 205 105 401 114 664 29 860
-352 1510 -1110 1892 -268 134 -635 246 -997 303 -294 46 -332 47 -1177 52
l-813 4 0 -2141z"/>
</g>
</svg>
