<?xml version="1.0" encoding="utf-8"?>
<!-- Generator: Adobe Illustrator 26.5.0, SVG Export Plug-In . SVG Version: 6.00 Build 0)  -->
<svg version="1.1" id="Layer_1" xmlns="http://www.w3.org/2000/svg" xmlns:xlink="http://www.w3.org/1999/xlink" x="0px" y="0px"
	 viewBox="0 0 360 360" style="enable-background:new 0 0 360 360;" xml:space="preserve">
<style type="text/css">
	.st0{fill:#1E1D1D;}
</style>
<g>
	<path class="st0" d="M84.2,311.3L84.2,311.3c12.1,0.1,24.2,0.4,36.2,0c13.3-0.4,23.2-6.8,30.2-18c4.3-7,8.4-14.3,12.5-21.5
		c21.6-38.1,43.3-76.2,64.8-114.3c7.1-12.5,7.1-25.3-0.1-37.8c-12-20.7-23.8-41.3-35.8-62c-1-1.8-2.2-3.5-3.5-5.2
		c-4.8-5.8-13.4-5.8-18.2,0c-2.1,2.6-3.9,5.4-5.4,8.3c-37.8,66.3-75.6,132.6-113.3,198.9c-6.5,11.2-12.9,22.4-18.8,34
		c-4.4,8.5,0.6,17.2,10.2,17.4C56.8,311.7,70.5,311.3,84.2,311.3z M267.9,311.4c0,0.1,0,0.3,0,0.4c10.8,0,21.6,0.1,32.4,0
		c5.9-0.1,11.8,0,17.7-0.6c8.1-0.7,12.7-8.7,9.8-16.1c-1-2.6-2.3-5.1-3.8-7.5c-14-23.9-28-47.9-42.2-71.8c-1.5-2.5-3-5-4.9-7.1
		c-4.7-5.6-13.2-5.7-17.9,0c-2.1,2.5-3.8,5.3-5.4,7.9c-8.5,14.5-17,28.9-25.4,43.5c-6.4,11-12.8,21.8-18.8,32.8
		c-5,9.2,0,18.1,10.4,18.5C236,311.8,252,311.4,267.9,311.4z"/>
	<path class="st0" d="M84.2,311.3c-13.7,0-27.4,0.4-41.1-0.1c-9.5-0.4-14.6-8.9-10.2-17.5c5.9-11.4,12.5-22.7,18.8-34
		C89.4,193.4,127.3,127,165,60.8c1.7-2.9,3.3-5.7,5.4-8.3c4.7-5.8,13.4-5.8,18.2,0c1.3,1.6,2.5,3.3,3.5,5.2
		c11.9,20.7,23.7,41.2,35.6,62c7.2,12.5,7.2,25.3,0.1,37.8c-21.6,38.1-43.2,76.2-64.8,114.3c-4.1,7.2-8.1,14.5-12.5,21.5
		c-6.8,11.2-16.7,17.7-30.2,18C108.2,311.7,96.3,311.4,84.2,311.3C84.2,311.4,84.2,311.3,84.2,311.3z"/>
	<path class="st0" d="M267.9,311.4c-16,0-32,0.4-48-0.1c-10.5-0.4-15.4-9.2-10.4-18.5c6-11.2,12.5-22,18.8-32.8
		c8.4-14.5,16.9-29,25.4-43.5c1.7-2.8,3.3-5.4,5.4-7.9c4.7-5.7,13.2-5.6,17.9,0c1.8,2.2,3.4,4.6,4.9,7.1
		c14.1,23.9,28.1,47.8,42.2,71.8c1.4,2.4,2.8,4.9,3.8,7.5c3,7.5-1.8,15.4-9.8,16.1c-5.9,0.5-11.8,0.5-17.7,0.6
		c-10.8,0.1-21.6,0-32.4,0C267.9,311.7,267.9,311.5,267.9,311.4z"/>
</g>
</svg>
