<?xml version="1.0" encoding="utf-8"?>
<!-- Generator: Adobe Illustrator 26.5.0, SVG Export Plug-In . SVG Version: 6.00 Build 0)  -->
<svg version="1.1" id="Layer_1" xmlns="http://www.w3.org/2000/svg" xmlns:xlink="http://www.w3.org/1999/xlink" x="0px" y="0px"
	 viewBox="0 0 360 360" style="enable-background:new 0 0 360 360;" xml:space="preserve">
<style type="text/css">
	.st0{fill:#1E1D1D;}
</style>
<g>
	<path class="st0" d="M85.2,181.9c0.8,0.5,1.3,0.9,1.8,1.2c29.7,17.7,59.4,35.4,89,53.2c2,1.2,3.2,0.7,4.8-0.3
		c30.4-17.5,61-35.1,91.4-52.6c0.8-0.4,1.6-1.1,2.7-1.7c-31.5-52-63-104-94.8-156.3C148.4,77.8,116.9,129.7,85.2,181.9z"/>
	<path class="st0" d="M179.7,334.5c-0.4-0.9-0.8-1.8-1.4-2.5c-31.7-44-63.3-88-95-131.9c-0.6-0.9-1.3-1.8-2.3-3.3
		c1.4,0.7,2.2,1,2.9,1.4c30.5,18.2,61.2,36.5,91.6,54.8c2.1,1.3,3.4,1.1,5.4-0.1c31.8-18.3,63.6-36.6,95.4-54.9c0.8-0.4,1.7-1,3-1.1
		c-0.8,1.2-1.6,2.3-2.4,3.5c-31.8,44.2-63.6,88.3-95.4,132.5c-0.4,0.5-0.7,1.2-1.1,1.7C180.1,334.5,180,334.5,179.7,334.5z"/>
	<path class="st0" d="M85.2,181.9c31.7-52.3,63.2-104.2,94.9-156.5c31.7,52.3,63.2,104.2,94.8,156.3c-1,0.6-1.8,1.2-2.7,1.7
		c-30.4,17.5-61,35-91.4,52.6c-1.6,1-3,1.4-4.8,0.3c-29.6-17.8-59.4-35.5-89-53.2C86.6,182.8,86,182.5,85.2,181.9z"/>
</g>
</svg>
