<?xml version="1.0" encoding="utf-8"?>
<!-- Generator: Adobe Illustrator 26.5.0, SVG Export Plug-In . SVG Version: 6.00 Build 0)  -->
<svg version="1.1" id="Layer_1" xmlns="http://www.w3.org/2000/svg" xmlns:xlink="http://www.w3.org/1999/xlink" x="0px" y="0px"
	 viewBox="0 0 360 360" style="enable-background:new 0 0 360 360;" xml:space="preserve">
<style type="text/css">
	.st0{fill:#1E1D1D;stroke:#1E1D1D;stroke-width:5;stroke-miterlimit:10;}
	.st1{fill:#1E1D1D;}
</style>
<g>
	<path class="st0" d="M180,331.9c-59.5-0.2-114-36-137.7-90.7c-9.6-22.2-13.7-45.3-12.6-69.3c3-61.8,43.3-115.5,101.6-135.8
		c18.8-6.6,38.3-9,58.2-7.8c66,4,122.5,51.8,137.2,117.7c3.8,17,4.9,34.2,2.6,51.5c-6.8,51.5-32.8,90.2-77.9,115.9
		c-17,9.6-35.4,15.2-54.8,17.2C191.1,331.3,185.6,331.5,180,331.9z M181.6,325.5c9.9,0,21.1-1.3,32.2-4
		C276.2,306.3,321.5,251,324.1,187c0.8-19.8-2-39.2-9-57.9c-24.3-65.2-92.3-107-166-91.1c-32.8,7.1-59.9,24.2-80.7,50.5
		C38.3,126.7,29.3,169.9,40.9,217C56.7,280.5,114.6,325.3,181.6,325.5z"/>
	<path class="st1" d="M113.6,237.2c1.9,0.3,3.6,0.6,5.3,0.7c6.4,0.6,9.6-2.3,9.6-8.7c0.1-23.3,0.1-46.5,0-69.7
		c0-5.8-4.5-9.1-10.4-7.8c-4.5,1-8.3,3.4-11.8,6.2c-8,6.3-14.5,14.1-20.5,22.2c-5.6,7.4-10.5,15.3-14.5,23.7
		c-0.1,0.3-0.3,0.6-0.6,1.1c-0.7-5.3-0.4-10.2,0.4-15c2.8-17,10.7-31.6,21.5-44.7c11.9-14.4,24.9-27.6,40.2-38.5
		c11.5-8.3,24-14.2,37.7-18c0.2-0.1,0.5-0.1,1-0.2c-0.4,0.4-0.5,0.6-0.6,0.6c-0.2,0.2-0.5,0.4-0.7,0.5c-5.6,4-10.3,8.7-13.6,14.8
		c-3.6,6.5-4,13.4-2.2,20.3c0.3,1.2,0.8,2.4,1.6,3.5c1.9,2.8,4.6,3.5,7.6,2.2c0.5-0.2,0.9-0.5,1.8-0.8c0,0.9,0,1.7,0,2.4
		c0,28.7,0,57.6,0,86.3c0,5.8,3.3,10.3,9,12c3.4,1,6.8,0.6,10.1-0.6c5.8-2,10.8-5.5,15.5-9.4c0.5-0.4,0.7-1.4,0.7-2.1
		c0-15.7,0-31.4,0-47.1c0-8.3,0-16.7,0-25c0-8.5-3.6-15.3-10.2-20.5c-0.2-0.1-0.4-0.3-0.8-0.6c6.4,0,12.4,0.5,17.8,3.9
		c15.8-16.4,34.8-26.9,57.5-31.8c-0.8,1-1.3,1.6-1.8,2.2c-6.5,8.5-13.3,16.9-19.6,25.6c-5.7,7.8-5.7,8-5.7,17.5
		c-0.1,18.2,0,36.4,0.1,54.6c0,7.5,0.4,14.9,0.5,22.4c0,1.9,0.8,3.1,2.3,3.9c3.2,1.9,6.6,1.7,10,0.7c5.7-1.6,10.7-4.7,15.1-8.4
		c4.3-3.5,8.3-7.3,12.4-11c0,0.2,0,0.4-0.1,0.6c-11.8,22.8-27.2,42.5-48.7,56.9c-3.9,2.6-3.9,2.6-7.6-0.5
		c-4.9-4.2-9.8-8.3-14.7-12.4c-0.6-0.6-1.3-1.1-2.5-2c-0.5,0.6-0.7,1.4-1.3,1.9c-6.4,6.9-12.7,13.6-19.2,20.4
		c-0.6,0.6-1.6,1-2.3,0.9c-20.5-2.9-40-8.5-56.5-21.5c-3.9-3.1-7-7-10.5-10.5C114.3,238.4,114.1,237.9,113.6,237.2z"/>
</g>
</svg>
